<svg xmlns="http://www.w3.org/2000/svg" viewBox="0 0 750 500"><g id="freepik--background-complete--inject-2"><path d="M151.88,437.14c17.56-15.39,19.15-40.53,16-62.62-.54-3.69-.56-7.63-2.68-10.69s-6.47-4.82-9.61-2.89c-2.61,1.6-3.45,4.93-4.7,7.74a21.79,21.79,0,0,1-7.77,9.25c-2.22,1.48-5.05,2.55-7.52,1.52-3.39-1.41-4.25-5.78-4.63-9.46q-1.08-10.31-2.14-20.59c-.39-3.69-.79-7.45-2.32-10.81s-4.42-6.34-8-6.93-7.71,1.9-8.06,5.58c-.14,1.54.34,3.06.4,4.6s-.45,3.31-1.86,3.89-3-.29-4.23-1.24c-4.21-3.3-7.31-7.8-10.25-12.3s-5.81-9.11-9.7-12.78-9-6.36-14.32-6.08-10.57,4.16-11.33,9.48,2.85,10.27,6.6,14.1A82.54,82.54,0,0,0,84.6,351.33c1.25.7,2.61,1.45,3.2,2.76,1.07,2.37-1,5.06-3.32,6.14-2.64,1.21-5.65,1.26-8.48,1.91s-5.81,2.27-6.59,5.1c-1.09,3.93,2.49,7.52,5.87,9.76a70.75,70.75,0,0,0,22.15,9.73c2.82.69,5.77,1.25,8.16,2.91s4.08,4.82,3,7.56-4.32,3.95-7.22,3.73-5.6-1.47-8.42-2.19c-5.27-1.35-11.76-.28-14.52,4.45-1.81,3.1-1.56,7.13-.1,10.43A26.84,26.84,0,0,0,85,422.1c9.16,8.62,20.38,15.14,32.57,17.91s23.17,2.68,34.36-2.87" style="fill:#ebebeb"></path><path d="M154,453.54a162.41,162.41,0,0,0-9.36-29.67,332.19,332.19,0,0,0-17-34.07l-4.92-8.7c-1.62-2.85-3.23-5.68-5-8.35A165.5,165.5,0,0,0,106.84,358c-3.69-4.53-7.36-8.69-10.82-12.56s-6.77-7.4-9.91-10.5a131.73,131.73,0,0,0-15.92-13.49c-2-1.44-3.58-2.51-4.66-3.22-.53-.33-.93-.6-1.24-.8a2.85,2.85,0,0,0-.44-.25,2.85,2.85,0,0,0,.4.31l1.2.86c1.06.74,2.62,1.84,4.59,3.32a139.4,139.4,0,0,1,15.73,13.62c3.12,3.11,6.39,6.66,9.83,10.53s7.09,8.05,10.76,12.58a165.47,165.47,0,0,1,10.81,14.73c1.73,2.66,3.32,5.46,4.94,8.32l4.92,8.7a341.79,341.79,0,0,1,17,34,165.66,165.66,0,0,1,9.47,29.53" style="fill:#e0e0e0"></path><path d="M117.54,372.75a8.9,8.9,0,0,0,.18-1.61c.08-1,.15-2.55.21-4.41.11-3.72.1-8.87.06-14.54s0-10.81.19-14.52c.08-1.85.16-3.36.23-4.39a6.7,6.7,0,0,0,0-1.62,7.59,7.59,0,0,0-.29,1.59c-.15,1-.3,2.53-.45,4.39-.29,3.72-.43,8.87-.39,14.55s.1,10.66.13,14.53c0,1.75,0,3.22,0,4.41A6.77,6.77,0,0,0,117.54,372.75Z" style="fill:#e0e0e0"></path><path d="M69.23,369.12a10.28,10.28,0,0,0,1.92,0c1.22,0,3-.07,5.19-.06,4.39,0,10.45.19,17.12.7s12.7,1.25,17,1.91c2.17.31,3.93.61,5.14.81a11.5,11.5,0,0,0,1.9.25,10.19,10.19,0,0,0-1.85-.52c-1.2-.28-2.94-.65-5.11-1-4.34-.78-10.37-1.58-17.07-2.11a170.18,170.18,0,0,0-17.18-.5c-2.2.05-4,.17-5.2.28A10.56,10.56,0,0,0,69.23,369.12Z" style="fill:#e0e0e0"></path><path d="M144,423.06a2.47,2.47,0,0,0,.26-.61l.62-1.8c.53-1.57,1.24-3.86,2.08-6.69,1.69-5.68,3.77-13.59,6-22.35s4.18-16.68,5.75-22.38l1.87-6.74c.2-.74.37-1.35.5-1.84a2.49,2.49,0,0,0,.13-.66,2.74,2.74,0,0,0-.26.61l-.62,1.81c-.53,1.56-1.24,3.85-2.08,6.69-1.69,5.67-3.77,13.58-6,22.34s-4.18,16.68-5.75,22.38l-1.87,6.75c-.2.73-.37,1.34-.5,1.84A2.4,2.4,0,0,0,144,423.06Z" style="fill:#e0e0e0"></path><path d="M78.83,409.73a2.5,2.5,0,0,0,.65.19l1.89.41,7,1.44c5.89,1.22,14,3,23,5s17.1,3.68,23,4.77c3,.55,5.35,1,7,1.23l1.91.28a2.07,2.07,0,0,0,.68.05,2.69,2.69,0,0,0-.65-.19l-1.9-.41-7-1.44c-5.89-1.21-14-3-23-5s-17.1-3.68-23-4.77c-3-.55-5.36-1-7-1.22l-1.92-.29A2.43,2.43,0,0,0,78.83,409.73Z" style="fill:#e0e0e0"></path><rect x="153.35" y="193.82" width="84.76" height="259.65" style="fill:#f5f5f5"></rect><rect x="237.85" y="193.82" width="66.99" height="259.65" style="fill:#fafafa"></rect><rect x="157.9" y="235.37" width="71.9" height="20.24" style="fill:#e0e0e0"></rect><rect x="159.91" y="237.92" width="4.03" height="15.49" style="fill:#f5f5f5"></rect><path d="M168.68,241.18a1.28,1.28,0,1,1-1.28-1.28A1.28,1.28,0,0,1,168.68,241.18Z" style="fill:#fafafa"></path><circle cx="167.4" cy="246.65" r="1.28" style="fill:#fafafa"></circle><rect x="173.8" y="239.9" width="3.96" height="11.9" style="fill:#f5f5f5"></rect><rect x="179.51" y="239.9" width="3.96" height="11.9" style="fill:#f5f5f5"></rect><rect x="185.23" y="239.9" width="3.96" height="11.9" style="fill:#f5f5f5"></rect><rect x="190.94" y="239.9" width="3.96" height="11.9" style="fill:#f5f5f5"></rect><rect x="196.66" y="239.9" width="3.96" height="11.9" style="fill:#f5f5f5"></rect><rect x="202.37" y="239.9" width="3.96" height="11.9" style="fill:#f5f5f5"></rect><rect x="208.09" y="239.9" width="3.96" height="11.9" style="fill:#f5f5f5"></rect><rect x="213.8" y="239.9" width="3.96" height="11.9" style="fill:#f5f5f5"></rect><rect x="219.52" y="239.9" width="3.96" height="11.9" style="fill:#f5f5f5"></rect><rect x="225.23" y="239.9" width="3.96" height="11.9" style="fill:#f5f5f5"></rect><rect x="157.9" y="267.8" width="71.9" height="20.24" style="fill:#e0e0e0"></rect><rect x="159.91" y="270.34" width="4.03" height="15.49" style="fill:#f5f5f5"></rect><path d="M168.68,273.6a1.28,1.28,0,1,1-1.28-1.28A1.28,1.28,0,0,1,168.68,273.6Z" style="fill:#fafafa"></path><circle cx="167.4" cy="279.07" r="1.28" style="fill:#fafafa"></circle><rect x="173.8" y="272.32" width="3.96" height="11.9" style="fill:#f5f5f5"></rect><rect x="179.51" y="272.32" width="3.96" height="11.9" style="fill:#f5f5f5"></rect><rect x="185.23" y="272.32" width="3.96" height="11.9" style="fill:#f5f5f5"></rect><rect x="190.94" y="272.32" width="3.96" height="11.9" style="fill:#f5f5f5"></rect><rect x="196.66" y="272.32" width="3.96" height="11.9" style="fill:#f5f5f5"></rect><rect x="202.37" y="272.32" width="3.96" height="11.9" style="fill:#f5f5f5"></rect><rect x="208.09" y="272.32" width="3.96" height="11.9" style="fill:#f5f5f5"></rect><rect x="213.8" y="272.32" width="3.96" height="11.9" style="fill:#f5f5f5"></rect><rect x="219.52" y="272.32" width="3.96" height="11.9" style="fill:#f5f5f5"></rect><rect x="225.23" y="272.32" width="3.96" height="11.9" style="fill:#f5f5f5"></rect><rect x="157.9" y="300.22" width="71.9" height="20.24" style="fill:#e0e0e0"></rect><rect x="159.91" y="302.76" width="4.03" height="15.49" style="fill:#f5f5f5"></rect><path d="M168.68,306a1.28,1.28,0,1,1-1.28-1.28A1.28,1.28,0,0,1,168.68,306Z" style="fill:#fafafa"></path><circle cx="167.4" cy="311.5" r="1.28" style="fill:#fafafa"></circle><rect x="173.8" y="304.74" width="3.96" height="11.9" style="fill:#f5f5f5"></rect><rect x="179.51" y="304.74" width="3.96" height="11.9" style="fill:#f5f5f5"></rect><rect x="185.23" y="304.74" width="3.96" height="11.9" style="fill:#f5f5f5"></rect><rect x="190.94" y="304.74" width="3.96" height="11.9" style="fill:#f5f5f5"></rect><rect x="196.66" y="304.74" width="3.96" height="11.9" style="fill:#f5f5f5"></rect><rect x="202.37" y="304.74" width="3.96" height="11.9" style="fill:#f5f5f5"></rect><rect x="208.09" y="304.74" width="3.96" height="11.9" style="fill:#f5f5f5"></rect><rect x="213.8" y="304.74" width="3.96" height="11.9" style="fill:#f5f5f5"></rect><rect x="219.52" y="304.74" width="3.96" height="11.9" style="fill:#f5f5f5"></rect><rect x="225.23" y="304.74" width="3.96" height="11.9" style="fill:#f5f5f5"></rect><rect x="157.9" y="332.64" width="71.9" height="20.24" style="fill:#e0e0e0"></rect><rect x="159.91" y="335.19" width="4.03" height="15.49" style="fill:#f5f5f5"></rect><path d="M168.68,338.45a1.28,1.28,0,1,1-1.28-1.28A1.28,1.28,0,0,1,168.68,338.45Z" style="fill:#fafafa"></path><circle cx="167.4" cy="343.92" r="1.28" style="fill:#fafafa"></circle><rect x="173.8" y="337.17" width="3.96" height="11.9" style="fill:#f5f5f5"></rect><rect x="179.51" y="337.17" width="3.96" height="11.9" style="fill:#f5f5f5"></rect><rect x="185.23" y="337.17" width="3.96" height="11.9" style="fill:#f5f5f5"></rect><rect x="190.94" y="337.17" width="3.96" height="11.9" style="fill:#f5f5f5"></rect><rect x="196.66" y="337.17" width="3.96" height="11.9" style="fill:#f5f5f5"></rect><rect x="202.37" y="337.17" width="3.96" height="11.9" style="fill:#f5f5f5"></rect><rect x="208.09" y="337.17" width="3.96" height="11.9" style="fill:#f5f5f5"></rect><rect x="213.8" y="337.17" width="3.96" height="11.9" style="fill:#f5f5f5"></rect><rect x="219.52" y="337.17" width="3.96" height="11.9" style="fill:#f5f5f5"></rect><rect x="225.23" y="337.17" width="3.96" height="11.9" style="fill:#f5f5f5"></rect><rect x="157.9" y="365.07" width="71.9" height="20.24" style="fill:#e0e0e0"></rect><rect x="159.91" y="367.61" width="4.03" height="15.49" style="fill:#f5f5f5"></rect><path d="M168.68,370.87a1.28,1.28,0,1,1-1.28-1.28A1.28,1.28,0,0,1,168.68,370.87Z" style="fill:#fafafa"></path><circle cx="167.4" cy="376.35" r="1.28" style="fill:#fafafa"></circle><rect x="173.8" y="369.59" width="3.96" height="11.9" style="fill:#f5f5f5"></rect><rect x="179.51" y="369.59" width="3.96" height="11.9" style="fill:#f5f5f5"></rect><rect x="185.23" y="369.59" width="3.96" height="11.9" style="fill:#f5f5f5"></rect><rect x="190.94" y="369.59" width="3.96" height="11.9" style="fill:#f5f5f5"></rect><rect x="196.66" y="369.59" width="3.96" height="11.9" style="fill:#f5f5f5"></rect><rect x="202.37" y="369.59" width="3.96" height="11.9" style="fill:#f5f5f5"></rect><rect x="208.09" y="369.59" width="3.96" height="11.9" style="fill:#f5f5f5"></rect><rect x="213.8" y="369.59" width="3.96" height="11.9" style="fill:#f5f5f5"></rect><rect x="219.52" y="369.59" width="3.96" height="11.9" style="fill:#f5f5f5"></rect><rect x="225.23" y="369.59" width="3.96" height="11.9" style="fill:#f5f5f5"></rect><rect x="157.9" y="397.49" width="71.9" height="20.24" style="fill:#e0e0e0"></rect><rect x="159.91" y="400.04" width="4.03" height="15.49" style="fill:#f5f5f5"></rect><path d="M168.68,403.29A1.28,1.28,0,1,1,167.4,402,1.28,1.28,0,0,1,168.68,403.29Z" style="fill:#fafafa"></path><circle cx="167.4" cy="408.77" r="1.28" style="fill:#fafafa"></circle><rect x="173.8" y="402.01" width="3.96" height="11.9" style="fill:#f5f5f5"></rect><rect x="179.51" y="402.01" width="3.96" height="11.9" style="fill:#f5f5f5"></rect><rect x="185.23" y="402.01" width="3.96" height="11.9" style="fill:#f5f5f5"></rect><rect x="190.94" y="402.01" width="3.96" height="11.9" style="fill:#f5f5f5"></rect><rect x="196.66" y="402.01" width="3.96" height="11.9" style="fill:#f5f5f5"></rect><rect x="202.37" y="402.01" width="3.96" height="11.9" style="fill:#f5f5f5"></rect><rect x="208.09" y="402.01" width="3.96" height="11.9" style="fill:#f5f5f5"></rect><rect x="213.8" y="402.01" width="3.96" height="11.9" style="fill:#f5f5f5"></rect><rect x="219.52" y="402.01" width="3.96" height="11.9" style="fill:#f5f5f5"></rect><rect x="225.23" y="402.01" width="3.96" height="11.9" style="fill:#f5f5f5"></rect><rect x="157.9" y="429.91" width="71.9" height="20.24" style="fill:#e0e0e0"></rect><rect x="159.91" y="432.46" width="4.03" height="15.49" style="fill:#f5f5f5"></rect><circle cx="167.4" cy="435.72" r="1.28" style="fill:#fafafa"></circle><circle cx="167.4" cy="441.19" r="1.28" style="fill:#fafafa"></circle><rect x="173.8" y="434.44" width="3.96" height="11.9" style="fill:#f5f5f5"></rect><rect x="179.51" y="434.44" width="3.96" height="11.9" style="fill:#f5f5f5"></rect><rect x="185.23" y="434.44" width="3.96" height="11.9" style="fill:#f5f5f5"></rect><rect x="190.94" y="434.44" width="3.96" height="11.9" style="fill:#f5f5f5"></rect><rect x="196.66" y="434.44" width="3.96" height="11.9" style="fill:#f5f5f5"></rect><rect x="202.37" y="434.44" width="3.96" height="11.9" style="fill:#f5f5f5"></rect><rect x="208.09" y="434.44" width="3.96" height="11.9" style="fill:#f5f5f5"></rect><rect x="213.8" y="434.44" width="3.96" height="11.9" style="fill:#f5f5f5"></rect><rect x="219.52" y="434.44" width="3.96" height="11.9" style="fill:#f5f5f5"></rect><rect x="225.23" y="434.44" width="3.96" height="11.9" style="fill:#f5f5f5"></rect><path d="M202.37,235.37a2.34,2.34,0,0,1-.08-.62c0-.41,0-1-.08-1.8s0-1.74-.09-2.84a17.87,17.87,0,0,0-.49-3.69,13.15,13.15,0,0,0-1.92-4,9.05,9.05,0,0,0-3.93-3.16,19.41,19.41,0,0,0-5.58-1.13l-6.2-.53c-8.48-.74-16.18-1.21-21.76-1.32-2.79-.06-5-.05-6.6,0h-1.8a2.58,2.58,0,0,1-.63,0,2.79,2.79,0,0,1,.63-.07l1.79-.12c1.56-.06,3.82-.14,6.62-.12,5.59,0,13.3.43,21.8,1.17l6.19.54a19.42,19.42,0,0,1,5.72,1.2,9.38,9.38,0,0,1,4.1,3.35,13.43,13.43,0,0,1,1.92,4.2,17.29,17.29,0,0,1,.43,3.77c0,1.11,0,2.07,0,2.85s0,1.33,0,1.79A3.34,3.34,0,0,1,202.37,235.37Z" style="fill:#e0e0e0"></path><path d="M180.56,235.37a2.08,2.08,0,0,1-.05-.59c0-.44,0-1,0-1.69s0-1.63-.08-2.66a8.18,8.18,0,0,0-.89-3.33,6.41,6.41,0,0,0-3.24-2.49,9,9,0,0,0-4.72-.47,8.08,8.08,0,0,0-2.44.82,4.72,4.72,0,0,0-1.89,1.79,2.55,2.55,0,0,0,0,2.51,3.4,3.4,0,0,0,2.14,1.61,2.7,2.7,0,0,0,2.49-.73,3.71,3.71,0,0,0,1.13-2.38,3.65,3.65,0,0,0-.75-2.44,5.38,5.38,0,0,0-1.89-1.67A7.33,7.33,0,0,0,168,223c-.81-.12-1.6-.23-2.36-.31-1.53-.17-3-.27-4.27-.33-2.62-.1-4.75-.07-6.21-.07h-1.7a3.06,3.06,0,0,1-.59,0,2.62,2.62,0,0,1,.59-.07l1.69-.09c1.47-.06,3.6-.16,6.23-.1,1.32,0,2.76.11,4.3.27.77.08,1.57.17,2.39.29.41.06.81.11,1.24.19a5,5,0,0,1,1.28.45,5.72,5.72,0,0,1,2.08,1.81,4.09,4.09,0,0,1,.84,2.76,4.16,4.16,0,0,1-1.27,2.72,3.22,3.22,0,0,1-3,.85,3.83,3.83,0,0,1-2.47-1.86,3.05,3.05,0,0,1,0-3,5.12,5.12,0,0,1,2.1-2,8.48,8.48,0,0,1,2.6-.87,9.31,9.31,0,0,1,5,.55,6.7,6.7,0,0,1,3.4,2.71,8.43,8.43,0,0,1,.86,3.49c.05,1.05,0,2,0,2.68s-.06,1.25-.08,1.69A2.08,2.08,0,0,1,180.56,235.37Z" style="fill:#e0e0e0"></path><path d="M208.24,235.37a3,3,0,0,1-.15-.67c-.08-.44-.21-1.09-.39-1.92a37.74,37.74,0,0,0-2.12-6.85,20,20,0,0,0-6.26-8.38,11.77,11.77,0,0,0-5.72-2.18,58.61,58.61,0,0,0-6.74-.36c-9.29-.18-17.71-.14-23.8-.39-3.05-.11-5.51-.25-7.21-.38l-2-.16a3.35,3.35,0,0,1-.68-.1,3.32,3.32,0,0,1,.69,0l2,.07c1.7.06,4.16.15,7.21.21,6.08.15,14.5.06,23.8.24a58,58,0,0,1,6.8.37,12.28,12.28,0,0,1,5.94,2.3,18,18,0,0,1,4,4.2,23.89,23.89,0,0,1,2.35,4.43,34.43,34.43,0,0,1,2,7c.15.84.25,1.5.29,1.95A3.15,3.15,0,0,1,208.24,235.37Z" style="fill:#e0e0e0"></path><rect x="158.89" y="197.05" width="69.92" height="10.15" style="fill:#e0e0e0"></rect><rect x="174.27" y="202.12" width="38.07" height="5.08" style="fill:#f5f5f5"></rect></g><g id="freepik--Floor--inject-2"><path d="M696.71,453.64c0,.14-144.05.26-321.69.26s-321.73-.12-321.73-.26,144-.26,321.73-.26S696.71,453.5,696.71,453.64Z" style="fill:#263238"></path></g><g id="freepik--Plants--inject-2"><path d="M643.88,328.66s-5.76-3.74-12.63,10-9.46,21.7-9.46,21.7-1.82,2.89-3.81,1-4.74-7.17-8.09-6.18-4.58,4.92-3.87,10.62,1.81,18.24,1.9,19.38-.53,2.76-2.08,1.71-10.56-10.91-15-6.36.17,20.11.64,21.82.14,2.44-.67,2.87-3.52-3.16-6.2-5.86-6.24-5.36-8.57-2.52-3,14.54,8.3,33.45l5.81,8.42,10.25-.65c21.85-2.74,30.68-10.46,31.48-14s-3.49-4.77-7.27-5.21-8.27-.37-8.43-1.28.22-1.61,1.85-2.3,16.72-6.63,17.59-12.92-12.44-7.31-14.22-7.89-.88-2.09.06-2.7,11.52-7.48,16.45-10.42,7.31-6.23,6-9.59-7.15-2.15-9.85-2.57-1.53-3.64-1.53-3.64,4.66-6.91,11.28-20.81,0-16.15,0-16.15" style="fill:#C53F3F"></path><path d="M637.71,341l-.13.3-.39.86-1.54,3.3c-1.34,2.86-3.31,7-5.76,12.08-4.9,10.19-11.79,24.2-19.45,39.65s-14.6,29.45-19.55,39.61l-5.86,12-1.6,3.27-.42.85c-.1.19-.16.28-.16.28l.12-.3.4-.86c.36-.77.87-1.88,1.54-3.3,1.33-2.86,3.3-7,5.76-12.08,4.9-10.19,11.79-24.2,19.46-39.66s14.58-29.44,19.54-39.6l5.86-12,1.6-3.27.42-.85C637.65,341.08,637.71,341,637.71,341Z" style="fill:#263238"></path><path d="M613.44,362.82a3.77,3.77,0,0,1,.27.69c.15.45.35,1.11.59,1.92.48,1.63,1.09,3.9,1.7,6.42s1.14,4.71,1.56,6.45q.29,1.14.48,1.95a2.76,2.76,0,0,1,.14.72,3,3,0,0,1-.27-.69c-.15-.45-.36-1.1-.59-1.92-.46-1.64-1-3.91-1.65-6.43s-1.17-4.71-1.6-6.44c-.2-.76-.36-1.41-.49-1.95A2.76,2.76,0,0,1,613.44,362.82Z" style="fill:#263238"></path><path d="M619.12,381.15c0-.1,4.6-1.55,10.33-3.25s10.39-3,10.42-2.91-4.59,1.55-10.32,3.25S619.15,381.24,619.12,381.15Z" style="fill:#263238"></path><path d="M606.28,404.35a2.94,2.94,0,0,1,.76-.05l2.05,0c1.73,0,4.13,0,6.76-.16s5-.31,6.75-.46l2-.17a2.54,2.54,0,0,1,.75,0,3,3,0,0,1-.73.15c-.48.08-1.18.18-2,.29-1.72.21-4.11.44-6.76.56s-5,.11-6.78.06c-.87,0-1.57-.06-2.05-.1A3.64,3.64,0,0,1,606.28,404.35Z" style="fill:#263238"></path><path d="M597.49,388.9a2.6,2.6,0,0,1,.41.57c.25.37.59.92,1,1.6.84,1.37,2,3.27,3.21,5.38s2.34,4,3.12,5.42c.39.7.7,1.27.91,1.67a2.85,2.85,0,0,1,.3.63,2.67,2.67,0,0,1-.41-.56c-.25-.38-.59-.93-1-1.61-.84-1.37-2-3.27-3.21-5.38s-2.34-4-3.12-5.42c-.39-.7-.7-1.27-.91-1.67A2.85,2.85,0,0,1,597.49,388.9Z" style="fill:#263238"></path><path d="M583.56,407.94a4.77,4.77,0,0,1,.51.73c.35.54.78,1.23,1.3,2.06,1.08,1.74,2.56,4.17,4.17,6.85s3.05,5.13,4.08,6.91l1.2,2.12a3.88,3.88,0,0,1,.4.8,5,5,0,0,1-.52-.74l-1.29-2.05c-1.09-1.75-2.56-4.17-4.17-6.86s-3-5.13-4.08-6.91c-.48-.84-.89-1.55-1.2-2.11A4.19,4.19,0,0,1,583.56,407.94Z" style="fill:#263238"></path><path d="M595.07,426.86a5.73,5.73,0,0,1,1-.08l2.6-.11c2.19-.1,5.23-.24,8.57-.49s6.37-.54,8.55-.77l2.59-.27a4.1,4.1,0,0,1,1-.05,5.57,5.57,0,0,1-.94.19c-.61.1-1.49.23-2.58.38-2.18.29-5.2.63-8.56.87s-6.39.35-8.59.38c-1.1,0-2,0-2.6,0A4.54,4.54,0,0,1,595.07,426.86Z" style="fill:#263238"></path><path d="M148.83,426.05a16.6,16.6,0,0,0-10.27-1.32,8.59,8.59,0,0,0-5.1,2.23c-1.28,1.4-1.53,3.86-.08,5.07a4.84,4.84,0,0,0,3.19.84c2.72,0,5.74-.47,7.9,1.18,1.23.94,2.05,2.5,3.52,3a3.51,3.51,0,0,0,3.87-1.69,6,6,0,0,0,.47-4.41A6.77,6.77,0,0,0,148.83,426.05Z" style="fill:#C53F3F"></path><g style="opacity:0.30000000000000004"><path d="M148.83,426.05a16.6,16.6,0,0,0-10.27-1.32,8.59,8.59,0,0,0-5.1,2.23c-1.28,1.4-1.53,3.86-.08,5.07a4.84,4.84,0,0,0,3.19.84c2.72,0,5.74-.47,7.9,1.18,1.23.94,2.05,2.5,3.52,3a3.51,3.51,0,0,0,3.87-1.69,6,6,0,0,0,.47-4.41A6.77,6.77,0,0,0,148.83,426.05Z"></path></g><path d="M156.09,412.27c-1.93,2.72-5.64,1.79-7.35.11s-2.42-4.1-3.07-6.41c-1.48-5.27-3-10.81-1.8-16.16a9.08,9.08,0,0,1,2.09-4.38,4.68,4.68,0,0,1,4.45-1.44c1.87.51,3,2.35,3.85,4.1A38.49,38.49,0,0,1,158,404.64c0,2.66-.34,5.45-1.86,7.63" style="fill:#C53F3F"></path><g style="opacity:0.30000000000000004"><path d="M156.09,412.27c-1.93,2.72-5.64,1.79-7.35.11s-2.42-4.1-3.07-6.41c-1.48-5.27-3-10.81-1.8-16.16a9.08,9.08,0,0,1,2.09-4.38,4.68,4.68,0,0,1,4.45-1.44c1.87.51,3,2.35,3.85,4.1A38.49,38.49,0,0,1,158,404.64c0,2.66-.34,5.45-1.86,7.63" style="fill:#fff"></path></g><path d="M161.32,416.23a10,10,0,0,1-1.49-9.16,17.71,17.71,0,0,1,5.48-7.82,29.1,29.1,0,0,1,9.74-5.65,10.21,10.21,0,0,1,4.36-.71,4.58,4.58,0,0,1,3.65,2.24c1,1.95,0,4.31-1.06,6.23a73.31,73.31,0,0,1-6.44,9.65c-1.93,2.45-4.13,4.86-7.05,6s-5.94.94-7.47-1.09" style="fill:#C53F3F"></path><path d="M155.93,453.47a6.25,6.25,0,0,1-.16-1.24c-.08-.9-.18-2-.31-3.39a47.61,47.61,0,0,0-.72-5A38,38,0,0,0,153,438a21.61,21.61,0,0,0-2.95-5.32,11.33,11.33,0,0,0-3.77-3.18,10.66,10.66,0,0,0-3.18-1,5.64,5.64,0,0,1-1.23-.19,6,6,0,0,1,1.25,0,9.58,9.58,0,0,1,3.32.89,11.07,11.07,0,0,1,4,3.2,21,21,0,0,1,3.07,5.43,35.76,35.76,0,0,1,1.75,6,44.12,44.12,0,0,1,.63,5c.09,1.44.13,2.61.14,3.41A5.28,5.28,0,0,1,155.93,453.47Z" style="fill:#263238"></path><path d="M155.72,450.87a2.17,2.17,0,0,1,0-.58c0-.43,0-1,0-1.65,0-1.43,0-3.49,0-6.05-.09-5.11-.48-12.16-1.27-19.92s-1.89-14.74-2.89-19.75c-.23-1.25-.47-2.38-.7-3.37s-.39-1.85-.57-2.54-.27-1.18-.37-1.6a2.45,2.45,0,0,1-.1-.57,2.41,2.41,0,0,1,.2.54c.12.41.27.94.46,1.58s.42,1.54.66,2.52.52,2.12.78,3.37a187.1,187.1,0,0,1,3,19.77c.8,7.77,1.13,14.85,1.13,20,0,2.56-.06,4.63-.13,6.06,0,.67-.09,1.21-.12,1.64A2.45,2.45,0,0,1,155.72,450.87Z" style="fill:#263238"></path><path d="M155.78,437.23a13.29,13.29,0,0,1,0-1.72c.08-1.11.24-2.7.56-4.66a64,64,0,0,1,1.57-6.78,59.29,59.29,0,0,1,2.89-8,43,43,0,0,1,8.43-12.93,20.79,20.79,0,0,1,2-1.81c.3-.25.57-.5.84-.7l.77-.52a11.31,11.31,0,0,1,1.45-.92,50.63,50.63,0,0,0-4.78,4.2,45.32,45.32,0,0,0-8.22,12.88,65.36,65.36,0,0,0-2.91,7.94c-.76,2.49-1.27,4.78-1.66,6.72s-.58,3.51-.72,4.61A10.76,10.76,0,0,1,155.78,437.23Z" style="fill:#263238"></path></g><g id="freepik--Server--inject-2"><path d="M319.9,155.78c-.14,0-.26-11-.26-24.64s.12-24.65.26-24.65.26,11,.26,24.65S320.05,155.78,319.9,155.78Z" style="fill:#263238"></path><rect x="460.3" y="322.9" width="112.71" height="123.66" style="fill:#263238"></rect><rect x="443.85" y="347.63" width="123.21" height="30.57" style="fill:#455a64"></rect><rect x="449.32" y="353.92" width="24.26" height="3.73" style="fill:#263238"></rect><rect x="449.32" y="360.35" width="24.26" height="3.73" style="fill:#263238"></rect><rect x="449.32" y="366.99" width="24.26" height="3.73" style="fill:#263238"></rect><path d="M483.17,356.18a1.39,1.39,0,1,1-1.39-1.39A1.39,1.39,0,0,1,483.17,356.18Z" style="fill:#263238"></path><path d="M489.31,356.18a1.39,1.39,0,1,1-1.39-1.39A1.39,1.39,0,0,1,489.31,356.18Z" style="fill:#263238"></path><path d="M495.45,356.18a1.39,1.39,0,1,1-1.39-1.39A1.39,1.39,0,0,1,495.45,356.18Z" style="fill:#263238"></path><path d="M501.59,356.18a1.39,1.39,0,1,1-1.39-1.39A1.39,1.39,0,0,1,501.59,356.18Z" style="fill:#263238"></path><path d="M549.18,356.18a1.39,1.39,0,1,1-1.39-1.39A1.39,1.39,0,0,1,549.18,356.18Z" style="fill:#263238"></path><path d="M555.44,356.18a1.39,1.39,0,1,1-1.39-1.39A1.39,1.39,0,0,1,555.44,356.18Z" style="fill:#263238"></path><path d="M507.73,356.18a1.39,1.39,0,1,1-1.39-1.39A1.39,1.39,0,0,1,507.73,356.18Z" style="fill:#263238"></path><path d="M537.89,356.18a1.39,1.39,0,1,1-1.39-1.39A1.39,1.39,0,0,1,537.89,356.18Z" style="fill:#263238"></path><path d="M513.87,356.18a1.39,1.39,0,1,1-1.39-1.39A1.39,1.39,0,0,1,513.87,356.18Z" style="fill:#f5f5f5"></path><path d="M520,356.18a1.4,1.4,0,1,1-1.4-1.39A1.4,1.4,0,0,1,520,356.18Z" style="fill:#f5f5f5"></path><path d="M532.48,356.18a1.4,1.4,0,1,1-1.4-1.39A1.4,1.4,0,0,1,532.48,356.18Z" style="fill:#f5f5f5"></path><path d="M560.54,356.18a1.39,1.39,0,1,1-1.39-1.39A1.39,1.39,0,0,1,560.54,356.18Z" style="fill:#f5f5f5"></path><path d="M526.16,356.18a1.4,1.4,0,1,1-1.39-1.39A1.39,1.39,0,0,1,526.16,356.18Z" style="fill:#C53F3F"></path><path d="M543.74,356.18a1.39,1.39,0,1,1-1.39-1.39A1.39,1.39,0,0,1,543.74,356.18Z" style="fill:#C53F3F"></path><path d="M557.76,362.89a1.39,1.39,0,1,1,1.39,1.39A1.39,1.39,0,0,1,557.76,362.89Z" style="fill:#263238"></path><path d="M551.61,362.89a1.4,1.4,0,1,1,1.4,1.39A1.4,1.4,0,0,1,551.61,362.89Z" style="fill:#263238"></path><path d="M545.47,362.89a1.4,1.4,0,1,1,1.39,1.39A1.39,1.39,0,0,1,545.47,362.89Z" style="fill:#263238"></path><path d="M539.33,362.89a1.4,1.4,0,1,1,1.39,1.39A1.39,1.39,0,0,1,539.33,362.89Z" style="fill:#263238"></path><path d="M491.74,362.89a1.4,1.4,0,1,1,1.39,1.39A1.39,1.39,0,0,1,491.74,362.89Z" style="fill:#263238"></path><path d="M485.48,362.89a1.39,1.39,0,1,1,1.39,1.39A1.39,1.39,0,0,1,485.48,362.89Z" style="fill:#263238"></path><path d="M533.19,362.89a1.39,1.39,0,1,1,1.39,1.39A1.39,1.39,0,0,1,533.19,362.89Z" style="fill:#263238"></path><path d="M503,362.89a1.39,1.39,0,1,1,1.39,1.39A1.39,1.39,0,0,1,503,362.89Z" style="fill:#263238"></path><path d="M527.05,362.89a1.39,1.39,0,1,1,1.39,1.39A1.39,1.39,0,0,1,527.05,362.89Z" style="fill:#f5f5f5"></path><path d="M520.91,362.89a1.39,1.39,0,1,1,1.39,1.39A1.39,1.39,0,0,1,520.91,362.89Z" style="fill:#f5f5f5"></path><path d="M508.45,362.89a1.39,1.39,0,1,1,1.39,1.39A1.39,1.39,0,0,1,508.45,362.89Z" style="fill:#f5f5f5"></path><path d="M480.39,362.89a1.39,1.39,0,1,1,1.39,1.39A1.39,1.39,0,0,1,480.39,362.89Z" style="fill:#f5f5f5"></path><path d="M514.77,362.89a1.39,1.39,0,1,1,1.39,1.39A1.39,1.39,0,0,1,514.77,362.89Z" style="fill:#C53F3F"></path><path d="M497.18,362.89a1.4,1.4,0,1,1,1.4,1.39A1.4,1.4,0,0,1,497.18,362.89Z" style="fill:#C53F3F"></path><circle cx="481.78" cy="368.85" r="1.39" style="fill:#263238"></circle><circle cx="487.92" cy="368.85" r="1.39" style="fill:#263238"></circle><circle cx="494.06" cy="368.85" r="1.39" style="fill:#263238"></circle><circle cx="500.2" cy="368.85" r="1.39" style="fill:#263238"></circle><circle cx="547.79" cy="368.85" r="1.39" style="fill:#263238"></circle><circle cx="554.05" cy="368.85" r="1.39" style="fill:#263238"></circle><circle cx="506.34" cy="368.85" r="1.39" style="fill:#263238"></circle><path d="M537.89,368.85a1.39,1.39,0,1,1-1.39-1.39A1.39,1.39,0,0,1,537.89,368.85Z" style="fill:#263238"></path><circle cx="512.48" cy="368.85" r="1.39" style="fill:#f5f5f5"></circle><path d="M520,368.85a1.4,1.4,0,1,1-1.4-1.39A1.4,1.4,0,0,1,520,368.85Z" style="fill:#f5f5f5"></path><circle cx="531.08" cy="368.85" r="1.39" style="fill:#f5f5f5"></circle><path d="M560.54,368.85a1.39,1.39,0,1,1-1.39-1.39A1.39,1.39,0,0,1,560.54,368.85Z" style="fill:#f5f5f5"></path><circle cx="524.77" cy="368.85" r="1.39" style="fill:#C53F3F"></circle><circle cx="542.35" cy="368.85" r="1.39" style="fill:#C53F3F"></circle><rect x="443.85" y="385.35" width="123.21" height="30.57" style="fill:#455a64"></rect><path d="M482.86,393.6a1.39,1.39,0,1,1-1.39-1.39A1.39,1.39,0,0,1,482.86,393.6Z" style="fill:#263238"></path><path d="M489,393.6a1.39,1.39,0,1,1-1.39-1.39A1.39,1.39,0,0,1,489,393.6Z" style="fill:#263238"></path><path d="M495.15,393.6a1.4,1.4,0,1,1-1.4-1.39A1.4,1.4,0,0,1,495.15,393.6Z" style="fill:#263238"></path><path d="M501.29,393.6a1.4,1.4,0,1,1-1.39-1.39A1.39,1.39,0,0,1,501.29,393.6Z" style="fill:#263238"></path><path d="M548.88,393.6a1.4,1.4,0,1,1-1.4-1.39A1.4,1.4,0,0,1,548.88,393.6Z" style="fill:#263238"></path><path d="M555.14,393.6a1.39,1.39,0,1,1-1.39-1.39A1.39,1.39,0,0,1,555.14,393.6Z" style="fill:#263238"></path><path d="M507.43,393.6a1.4,1.4,0,1,1-1.39-1.39A1.39,1.39,0,0,1,507.43,393.6Z" style="fill:#263238"></path><path d="M537.59,393.6a1.4,1.4,0,1,1-1.39-1.39A1.39,1.39,0,0,1,537.59,393.6Z" style="fill:#263238"></path><path d="M513.57,393.6a1.39,1.39,0,1,1-1.39-1.39A1.39,1.39,0,0,1,513.57,393.6Z" style="fill:#f5f5f5"></path><path d="M519.71,393.6a1.39,1.39,0,1,1-1.39-1.39A1.39,1.39,0,0,1,519.71,393.6Z" style="fill:#f5f5f5"></path><path d="M532.17,393.6a1.39,1.39,0,1,1-1.39-1.39A1.39,1.39,0,0,1,532.17,393.6Z" style="fill:#f5f5f5"></path><path d="M560.23,393.6a1.39,1.39,0,1,1-1.39-1.39A1.39,1.39,0,0,1,560.23,393.6Z" style="fill:#f5f5f5"></path><path d="M525.85,393.6a1.39,1.39,0,1,1-1.39-1.39A1.39,1.39,0,0,1,525.85,393.6Z" style="fill:#C53F3F"></path><path d="M543.44,393.6a1.4,1.4,0,1,1-1.4-1.39A1.4,1.4,0,0,1,543.44,393.6Z" style="fill:#C53F3F"></path><path d="M557.45,400.31a1.39,1.39,0,1,1,1.39,1.39A1.4,1.4,0,0,1,557.45,400.31Z" style="fill:#263238"></path><path d="M551.31,400.31a1.39,1.39,0,1,1,1.39,1.39A1.4,1.4,0,0,1,551.31,400.31Z" style="fill:#263238"></path><path d="M545.17,400.31a1.39,1.39,0,1,1,1.39,1.39A1.4,1.4,0,0,1,545.17,400.31Z" style="fill:#263238"></path><path d="M539,400.31a1.39,1.39,0,1,1,1.39,1.39A1.4,1.4,0,0,1,539,400.31Z" style="fill:#263238"></path><path d="M491.44,400.31a1.39,1.39,0,1,1,1.39,1.39A1.4,1.4,0,0,1,491.44,400.31Z" style="fill:#263238"></path><path d="M485.18,400.31a1.39,1.39,0,1,1,1.39,1.39A1.4,1.4,0,0,1,485.18,400.31Z" style="fill:#263238"></path><path d="M532.89,400.31a1.39,1.39,0,1,1,1.39,1.39A1.4,1.4,0,0,1,532.89,400.31Z" style="fill:#263238"></path><path d="M502.73,400.31a1.39,1.39,0,1,1,1.39,1.39A1.4,1.4,0,0,1,502.73,400.31Z" style="fill:#263238"></path><path d="M526.74,400.31a1.4,1.4,0,1,1,1.4,1.39A1.4,1.4,0,0,1,526.74,400.31Z" style="fill:#f5f5f5"></path><path d="M520.6,400.31A1.4,1.4,0,1,1,522,401.7,1.4,1.4,0,0,1,520.6,400.31Z" style="fill:#f5f5f5"></path><path d="M508.14,400.31a1.4,1.4,0,1,1,1.4,1.39A1.4,1.4,0,0,1,508.14,400.31Z" style="fill:#f5f5f5"></path><path d="M480.08,400.31a1.39,1.39,0,1,1,1.39,1.39A1.4,1.4,0,0,1,480.08,400.31Z" style="fill:#f5f5f5"></path><path d="M514.46,400.31a1.4,1.4,0,1,1,1.39,1.39A1.4,1.4,0,0,1,514.46,400.31Z" style="fill:#C53F3F"></path><path d="M496.88,400.31a1.39,1.39,0,1,1,1.39,1.39A1.4,1.4,0,0,1,496.88,400.31Z" style="fill:#C53F3F"></path><circle cx="481.47" cy="406.27" r="1.39" style="fill:#263238"></circle><circle cx="487.61" cy="406.27" r="1.39" style="fill:#263238"></circle><circle cx="493.75" cy="406.27" r="1.39" style="fill:#263238"></circle><circle cx="499.9" cy="406.27" r="1.39" style="fill:#263238"></circle><circle cx="547.48" cy="406.27" r="1.39" style="fill:#263238"></circle><circle cx="553.75" cy="406.27" r="1.39" style="fill:#263238"></circle><circle cx="506.04" cy="406.27" r="1.39" style="fill:#263238"></circle><circle cx="536.2" cy="406.27" r="1.39" style="fill:#263238"></circle><circle cx="512.18" cy="406.27" r="1.39" style="fill:#f5f5f5"></circle><circle cx="518.32" cy="406.27" r="1.39" style="fill:#f5f5f5"></circle><circle cx="530.78" cy="406.27" r="1.39" style="fill:#f5f5f5"></circle><path d="M560.23,406.27a1.39,1.39,0,1,1-1.39-1.39A1.39,1.39,0,0,1,560.23,406.27Z" style="fill:#f5f5f5"></path><circle cx="524.46" cy="406.27" r="1.39" style="fill:#C53F3F"></circle><circle cx="542.04" cy="406.27" r="1.39" style="fill:#C53F3F"></circle><rect x="449.32" y="391.65" width="24.26" height="3.73" style="fill:#263238"></rect><rect x="449.32" y="398.07" width="24.26" height="3.73" style="fill:#263238"></rect><rect x="449.32" y="404.71" width="24.26" height="3.73" style="fill:#263238"></rect><rect x="443.85" y="423.07" width="123.21" height="30.57" style="fill:#455a64"></rect><rect x="449.32" y="429.37" width="24.26" height="3.73" style="fill:#263238"></rect><rect x="449.32" y="435.79" width="24.26" height="3.73" style="fill:#263238"></rect><rect x="449.32" y="442.43" width="24.26" height="3.73" style="fill:#263238"></rect><path d="M482.42,431.32a1.4,1.4,0,1,1-1.39-1.39A1.39,1.39,0,0,1,482.42,431.32Z" style="fill:#263238"></path><path d="M488.56,431.32a1.39,1.39,0,1,1-1.39-1.39A1.39,1.39,0,0,1,488.56,431.32Z" style="fill:#263238"></path><path d="M494.7,431.32a1.39,1.39,0,1,1-1.39-1.39A1.39,1.39,0,0,1,494.7,431.32Z" style="fill:#263238"></path><path d="M500.84,431.32a1.39,1.39,0,1,1-1.39-1.39A1.39,1.39,0,0,1,500.84,431.32Z" style="fill:#263238"></path><path d="M548.43,431.32a1.39,1.39,0,1,1-1.39-1.39A1.39,1.39,0,0,1,548.43,431.32Z" style="fill:#263238"></path><path d="M554.69,431.32a1.39,1.39,0,1,1-1.39-1.39A1.39,1.39,0,0,1,554.69,431.32Z" style="fill:#263238"></path><path d="M507,431.32a1.39,1.39,0,1,1-1.39-1.39A1.39,1.39,0,0,1,507,431.32Z" style="fill:#263238"></path><path d="M537.14,431.32a1.39,1.39,0,1,1-1.39-1.39A1.39,1.39,0,0,1,537.14,431.32Z" style="fill:#263238"></path><path d="M513.12,431.32a1.39,1.39,0,1,1-1.39-1.39A1.39,1.39,0,0,1,513.12,431.32Z" style="fill:#f5f5f5"></path><path d="M519.26,431.32a1.39,1.39,0,1,1-1.39-1.39A1.39,1.39,0,0,1,519.26,431.32Z" style="fill:#f5f5f5"></path><path d="M531.72,431.32a1.39,1.39,0,1,1-1.39-1.39A1.39,1.39,0,0,1,531.72,431.32Z" style="fill:#f5f5f5"></path><path d="M559.79,431.32a1.4,1.4,0,1,1-1.39-1.39A1.39,1.39,0,0,1,559.79,431.32Z" style="fill:#f5f5f5"></path><path d="M525.41,431.32a1.4,1.4,0,1,1-1.4-1.39A1.4,1.4,0,0,1,525.41,431.32Z" style="fill:#C53F3F"></path><path d="M543,431.32a1.39,1.39,0,1,1-1.39-1.39A1.39,1.39,0,0,1,543,431.32Z" style="fill:#C53F3F"></path><path d="M557,438a1.4,1.4,0,1,1,1.4,1.39A1.4,1.4,0,0,1,557,438Z" style="fill:#263238"></path><path d="M550.86,438a1.4,1.4,0,1,1,1.39,1.39A1.39,1.39,0,0,1,550.86,438Z" style="fill:#263238"></path><path d="M544.72,438a1.39,1.39,0,1,1,1.39,1.39A1.39,1.39,0,0,1,544.72,438Z" style="fill:#263238"></path><path d="M538.58,438a1.39,1.39,0,1,1,1.39,1.39A1.39,1.39,0,0,1,538.58,438Z" style="fill:#263238"></path><path d="M491,438a1.39,1.39,0,1,1,1.39,1.39A1.39,1.39,0,0,1,491,438Z" style="fill:#263238"></path><path d="M484.73,438a1.39,1.39,0,1,1,1.39,1.39A1.39,1.39,0,0,1,484.73,438Z" style="fill:#263238"></path><path d="M532.44,438a1.39,1.39,0,1,1,1.39,1.39A1.39,1.39,0,0,1,532.44,438Z" style="fill:#263238"></path><path d="M502.28,438a1.39,1.39,0,1,1,1.39,1.39A1.39,1.39,0,0,1,502.28,438Z" style="fill:#263238"></path><path d="M526.3,438a1.39,1.39,0,1,1,1.39,1.39A1.39,1.39,0,0,1,526.3,438Z" style="fill:#f5f5f5"></path><path d="M520.16,438a1.39,1.39,0,1,1,1.39,1.39A1.39,1.39,0,0,1,520.16,438Z" style="fill:#f5f5f5"></path><path d="M507.7,438a1.39,1.39,0,1,1,1.39,1.39A1.39,1.39,0,0,1,507.7,438Z" style="fill:#f5f5f5"></path><path d="M479.63,438a1.4,1.4,0,1,1,1.4,1.39A1.4,1.4,0,0,1,479.63,438Z" style="fill:#f5f5f5"></path><path d="M514,438a1.39,1.39,0,1,1,1.39,1.39A1.39,1.39,0,0,1,514,438Z" style="fill:#C53F3F"></path><path d="M496.43,438a1.4,1.4,0,1,1,1.39,1.39A1.39,1.39,0,0,1,496.43,438Z" style="fill:#C53F3F"></path><path d="M482.42,444A1.4,1.4,0,1,1,481,442.6,1.4,1.4,0,0,1,482.42,444Z" style="fill:#263238"></path><path d="M488.56,444a1.39,1.39,0,1,1-1.39-1.39A1.4,1.4,0,0,1,488.56,444Z" style="fill:#263238"></path><path d="M494.7,444a1.39,1.39,0,1,1-1.39-1.39A1.4,1.4,0,0,1,494.7,444Z" style="fill:#263238"></path><path d="M500.84,444a1.39,1.39,0,1,1-1.39-1.39A1.4,1.4,0,0,1,500.84,444Z" style="fill:#263238"></path><path d="M548.43,444A1.39,1.39,0,1,1,547,442.6,1.4,1.4,0,0,1,548.43,444Z" style="fill:#263238"></path><path d="M554.69,444a1.39,1.39,0,1,1-1.39-1.39A1.4,1.4,0,0,1,554.69,444Z" style="fill:#263238"></path><path d="M507,444a1.39,1.39,0,1,1-1.39-1.39A1.4,1.4,0,0,1,507,444Z" style="fill:#263238"></path><path d="M537.14,444a1.39,1.39,0,1,1-1.39-1.39A1.4,1.4,0,0,1,537.14,444Z" style="fill:#263238"></path><path d="M513.12,444a1.39,1.39,0,1,1-1.39-1.39A1.4,1.4,0,0,1,513.12,444Z" style="fill:#f5f5f5"></path><path d="M519.26,444a1.39,1.39,0,1,1-1.39-1.39A1.4,1.4,0,0,1,519.26,444Z" style="fill:#f5f5f5"></path><path d="M531.72,444a1.39,1.39,0,1,1-1.39-1.39A1.4,1.4,0,0,1,531.72,444Z" style="fill:#f5f5f5"></path><path d="M559.79,444a1.4,1.4,0,1,1-1.39-1.39A1.4,1.4,0,0,1,559.79,444Z" style="fill:#f5f5f5"></path><path d="M525.41,444a1.4,1.4,0,1,1-1.4-1.39A1.4,1.4,0,0,1,525.41,444Z" style="fill:#C53F3F"></path><path d="M543,444a1.39,1.39,0,1,1-1.39-1.39A1.4,1.4,0,0,1,543,444Z" style="fill:#C53F3F"></path><polygon points="585.58 378.15 567.05 378.2 567.05 347.63 585.58 347.58 585.58 378.15" style="fill:#263238"></polygon><polygon points="585.58 340.98 567.05 341.03 567.05 310.46 585.58 310.41 585.58 340.98" style="fill:#263238"></polygon><polygon points="585.58 415.63 567.05 415.68 567.05 385.11 585.58 385.06 585.58 415.63" style="fill:#263238"></polygon><polygon points="585.58 453.59 567.05 453.64 567.05 423.07 585.58 423.02 585.58 453.59" style="fill:#263238"></polygon><rect x="444.74" y="310.18" width="123.21" height="30.57" style="fill:#455a64"></rect><rect x="450.21" y="316.47" width="24.26" height="3.73" style="fill:#263238"></rect><rect x="450.21" y="322.9" width="24.26" height="3.73" style="fill:#263238"></rect><rect x="450.21" y="329.54" width="24.26" height="3.73" style="fill:#263238"></rect><path d="M484.06,318.73a1.39,1.39,0,1,1-1.39-1.39A1.39,1.39,0,0,1,484.06,318.73Z" style="fill:#263238"></path><path d="M490.2,318.73a1.39,1.39,0,1,1-1.39-1.39A1.39,1.39,0,0,1,490.2,318.73Z" style="fill:#263238"></path><path d="M496.34,318.73a1.39,1.39,0,1,1-1.39-1.39A1.39,1.39,0,0,1,496.34,318.73Z" style="fill:#263238"></path><path d="M502.48,318.73a1.39,1.39,0,1,1-1.39-1.39A1.39,1.39,0,0,1,502.48,318.73Z" style="fill:#263238"></path><path d="M550.07,318.73a1.39,1.39,0,1,1-1.39-1.39A1.39,1.39,0,0,1,550.07,318.73Z" style="fill:#263238"></path><path d="M556.34,318.73a1.4,1.4,0,1,1-1.4-1.39A1.4,1.4,0,0,1,556.34,318.73Z" style="fill:#263238"></path><path d="M508.63,318.73a1.4,1.4,0,1,1-1.4-1.39A1.4,1.4,0,0,1,508.63,318.73Z" style="fill:#263238"></path><path d="M538.78,318.73a1.39,1.39,0,1,1-1.39-1.39A1.39,1.39,0,0,1,538.78,318.73Z" style="fill:#263238"></path><path d="M514.77,318.73a1.4,1.4,0,1,1-1.4-1.39A1.4,1.4,0,0,1,514.77,318.73Z" style="fill:#f5f5f5"></path><path d="M520.91,318.73a1.4,1.4,0,1,1-1.39-1.39A1.39,1.39,0,0,1,520.91,318.73Z" style="fill:#f5f5f5"></path><path d="M533.37,318.73a1.4,1.4,0,1,1-1.39-1.39A1.39,1.39,0,0,1,533.37,318.73Z" style="fill:#f5f5f5"></path><path d="M561.43,318.73a1.39,1.39,0,1,1-1.39-1.39A1.39,1.39,0,0,1,561.43,318.73Z" style="fill:#f5f5f5"></path><path d="M527.05,318.73a1.39,1.39,0,1,1-1.39-1.39A1.39,1.39,0,0,1,527.05,318.73Z" style="fill:#C53F3F"></path><path d="M544.63,318.73a1.39,1.39,0,1,1-1.39-1.39A1.39,1.39,0,0,1,544.63,318.73Z" style="fill:#C53F3F"></path><path d="M558.65,325.44a1.39,1.39,0,1,1,1.39,1.39A1.4,1.4,0,0,1,558.65,325.44Z" style="fill:#263238"></path><path d="M552.51,325.44a1.39,1.39,0,1,1,1.39,1.39A1.4,1.4,0,0,1,552.51,325.44Z" style="fill:#263238"></path><path d="M546.37,325.44a1.39,1.39,0,1,1,1.39,1.39A1.4,1.4,0,0,1,546.37,325.44Z" style="fill:#263238"></path><path d="M540.22,325.44a1.4,1.4,0,1,1,1.4,1.39A1.4,1.4,0,0,1,540.22,325.44Z" style="fill:#263238"></path><path d="M492.64,325.44a1.39,1.39,0,1,1,1.39,1.39A1.4,1.4,0,0,1,492.64,325.44Z" style="fill:#263238"></path><path d="M486.37,325.44a1.4,1.4,0,1,1,1.39,1.39A1.4,1.4,0,0,1,486.37,325.44Z" style="fill:#263238"></path><path d="M534.08,325.44a1.4,1.4,0,1,1,1.39,1.39A1.4,1.4,0,0,1,534.08,325.44Z" style="fill:#263238"></path><path d="M503.92,325.44a1.4,1.4,0,1,1,1.39,1.39A1.4,1.4,0,0,1,503.92,325.44Z" style="fill:#263238"></path><path d="M527.94,325.44a1.39,1.39,0,1,1,1.39,1.39A1.4,1.4,0,0,1,527.94,325.44Z" style="fill:#f5f5f5"></path><path d="M521.8,325.44a1.39,1.39,0,1,1,1.39,1.39A1.4,1.4,0,0,1,521.8,325.44Z" style="fill:#f5f5f5"></path><path d="M509.34,325.44a1.39,1.39,0,1,1,1.39,1.39A1.4,1.4,0,0,1,509.34,325.44Z" style="fill:#f5f5f5"></path><path d="M481.28,325.44a1.39,1.39,0,1,1,1.39,1.39A1.4,1.4,0,0,1,481.28,325.44Z" style="fill:#f5f5f5"></path><path d="M515.66,325.44a1.39,1.39,0,1,1,1.39,1.39A1.4,1.4,0,0,1,515.66,325.44Z" style="fill:#C53F3F"></path><path d="M498.08,325.44a1.39,1.39,0,1,1,1.39,1.39A1.4,1.4,0,0,1,498.08,325.44Z" style="fill:#C53F3F"></path><path d="M484.06,331.4a1.39,1.39,0,1,1-1.39-1.39A1.39,1.39,0,0,1,484.06,331.4Z" style="fill:#263238"></path><path d="M490.2,331.4a1.39,1.39,0,1,1-1.39-1.39A1.39,1.39,0,0,1,490.2,331.4Z" style="fill:#263238"></path><path d="M496.34,331.4A1.39,1.39,0,1,1,495,330,1.39,1.39,0,0,1,496.34,331.4Z" style="fill:#263238"></path><path d="M502.48,331.4a1.39,1.39,0,1,1-1.39-1.39A1.39,1.39,0,0,1,502.48,331.4Z" style="fill:#263238"></path><path d="M550.07,331.4a1.39,1.39,0,1,1-1.39-1.39A1.39,1.39,0,0,1,550.07,331.4Z" style="fill:#263238"></path><path d="M556.34,331.4a1.4,1.4,0,1,1-1.4-1.39A1.4,1.4,0,0,1,556.34,331.4Z" style="fill:#263238"></path><path d="M508.63,331.4a1.4,1.4,0,1,1-1.4-1.39A1.4,1.4,0,0,1,508.63,331.4Z" style="fill:#263238"></path><path d="M538.78,331.4a1.39,1.39,0,1,1-1.39-1.39A1.39,1.39,0,0,1,538.78,331.4Z" style="fill:#263238"></path><path d="M514.77,331.4a1.4,1.4,0,1,1-1.4-1.39A1.4,1.4,0,0,1,514.77,331.4Z" style="fill:#f5f5f5"></path><path d="M520.91,331.4a1.4,1.4,0,1,1-1.39-1.39A1.39,1.39,0,0,1,520.91,331.4Z" style="fill:#f5f5f5"></path><path d="M533.37,331.4A1.4,1.4,0,1,1,532,330,1.39,1.39,0,0,1,533.37,331.4Z" style="fill:#f5f5f5"></path><path d="M561.43,331.4A1.39,1.39,0,1,1,560,330,1.39,1.39,0,0,1,561.43,331.4Z" style="fill:#f5f5f5"></path><path d="M527.05,331.4a1.39,1.39,0,1,1-1.39-1.39A1.39,1.39,0,0,1,527.05,331.4Z" style="fill:#C53F3F"></path><path d="M544.63,331.4a1.39,1.39,0,1,1-1.39-1.39A1.39,1.39,0,0,1,544.63,331.4Z" style="fill:#C53F3F"></path><path d="M365.11,91l1,0,3,0,11.61,0,42.72-.08,140.91-.08a31.16,31.16,0,0,1,10.17,1.56,28.13,28.13,0,0,1,8.9,4.9A29.35,29.35,0,0,1,593.63,114a48.44,48.44,0,0,1,.57,9.66c0,3.18,0,6.34,0,9.46v18.31c0,23.84,0,45.32-.06,63.35q0,6.76,0,12.87c0,2,0,4,0,5.91A12,12,0,0,1,593,239a11.29,11.29,0,0,1-7.55,6.19,17.16,17.16,0,0,1-4.4.34l-4,0-11.61,0-3,0-1,0,1,0,3,0,11.61,0h4a17.11,17.11,0,0,0,4.35-.35,11,11,0,0,0,7.34-6.08,11.59,11.59,0,0,0,1-5.34c0-1.91,0-3.88,0-5.91q0-6.11,0-12.87c0-18,0-39.51,0-63.35q0-8.94,0-18.31c0-3.12,0-6.28,0-9.46a47.84,47.84,0,0,0-.56-9.56,28.91,28.91,0,0,0-10-16.44,27.84,27.84,0,0,0-8.74-4.81,30.94,30.94,0,0,0-10-1.53l-140.91-.07-42.72-.09-11.61,0-3,0Z" style="fill:#263238"></path><rect x="264.26" y="157.14" width="96.61" height="295.95" style="fill:#ebebeb"></rect><polygon points="437.09 453.09 360.87 453.09 360.73 157.14 437.09 157.14 437.09 453.09" style="fill:#e0e0e0"></polygon><rect x="269.6" y="204.51" width="81.95" height="23.07" style="fill:#263238"></rect><rect x="271.89" y="207.41" width="4.59" height="17.66" style="fill:#455a64"></rect><path d="M281.89,211.12a1.46,1.46,0,1,1-1.46-1.46A1.46,1.46,0,0,1,281.89,211.12Z" style="fill:#fff"></path><path d="M281.89,217.36a1.46,1.46,0,1,1-1.46-1.46A1.46,1.46,0,0,1,281.89,217.36Z" style="fill:#fff"></path><rect x="287.72" y="209.66" width="4.51" height="13.56" style="fill:#455a64"></rect><rect x="294.23" y="209.66" width="4.51" height="13.56" style="fill:#455a64"></rect><rect x="300.75" y="209.66" width="4.51" height="13.56" style="fill:#455a64"></rect><rect x="307.26" y="209.66" width="4.51" height="13.56" style="fill:#455a64"></rect><rect x="313.77" y="209.66" width="4.51" height="13.56" style="fill:#455a64"></rect><rect x="320.29" y="209.66" width="4.51" height="13.56" style="fill:#455a64"></rect><rect x="326.8" y="209.66" width="4.51" height="13.56" style="fill:#455a64"></rect><rect x="333.31" y="209.66" width="4.51" height="13.56" style="fill:#455a64"></rect><rect x="339.83" y="209.66" width="4.51" height="13.56" style="fill:#455a64"></rect><rect x="346.34" y="209.66" width="4.51" height="13.56" style="fill:#455a64"></rect><rect x="269.6" y="237.65" width="81.95" height="23.07" style="fill:#263238"></rect><rect x="271.89" y="240.55" width="4.59" height="17.66" style="fill:#455a64"></rect><path d="M281.89,244.27a1.46,1.46,0,1,1-1.46-1.46A1.47,1.47,0,0,1,281.89,244.27Z" style="fill:#fff"></path><path d="M281.89,250.51a1.46,1.46,0,1,1-1.46-1.46A1.47,1.47,0,0,1,281.89,250.51Z" style="fill:#fff"></path><rect x="287.72" y="242.81" width="4.51" height="13.56" style="fill:#455a64"></rect><rect x="294.23" y="242.81" width="4.51" height="13.56" style="fill:#455a64"></rect><rect x="300.75" y="242.81" width="4.51" height="13.56" style="fill:#455a64"></rect><rect x="307.26" y="242.81" width="4.51" height="13.56" style="fill:#455a64"></rect><rect x="313.77" y="242.81" width="4.51" height="13.56" style="fill:#455a64"></rect><rect x="320.29" y="242.81" width="4.51" height="13.56" style="fill:#455a64"></rect><rect x="326.8" y="242.81" width="4.51" height="13.56" style="fill:#455a64"></rect><rect x="333.31" y="242.81" width="4.51" height="13.56" style="fill:#455a64"></rect><rect x="339.83" y="242.81" width="4.51" height="13.56" style="fill:#455a64"></rect><rect x="346.34" y="242.81" width="4.51" height="13.56" style="fill:#455a64"></rect><rect x="269.6" y="271.06" width="81.95" height="23.07" style="fill:#263238"></rect><rect x="271.89" y="273.96" width="4.59" height="17.66" style="fill:#455a64"></rect><path d="M281.89,277.68a1.46,1.46,0,1,1-1.46-1.46A1.47,1.47,0,0,1,281.89,277.68Z" style="fill:#fff"></path><path d="M281.89,283.92a1.46,1.46,0,1,1-1.46-1.46A1.47,1.47,0,0,1,281.89,283.92Z" style="fill:#fff"></path><rect x="287.72" y="276.22" width="4.51" height="13.56" style="fill:#455a64"></rect><rect x="294.23" y="276.22" width="4.51" height="13.56" style="fill:#455a64"></rect><rect x="300.75" y="276.22" width="4.51" height="13.56" style="fill:#455a64"></rect><rect x="307.26" y="276.22" width="4.51" height="13.56" style="fill:#455a64"></rect><rect x="313.77" y="276.22" width="4.51" height="13.56" style="fill:#455a64"></rect><rect x="320.29" y="276.22" width="4.51" height="13.56" style="fill:#455a64"></rect><rect x="326.8" y="276.22" width="4.51" height="13.56" style="fill:#455a64"></rect><rect x="333.31" y="276.22" width="4.51" height="13.56" style="fill:#455a64"></rect><rect x="339.83" y="276.22" width="4.51" height="13.56" style="fill:#455a64"></rect><rect x="346.34" y="276.22" width="4.51" height="13.56" style="fill:#455a64"></rect><rect x="269.6" y="307.16" width="81.95" height="23.07" style="fill:#263238"></rect><rect x="271.89" y="310.06" width="4.59" height="17.66" style="fill:#455a64"></rect><path d="M281.89,313.77a1.46,1.46,0,1,1-1.46-1.46A1.46,1.46,0,0,1,281.89,313.77Z" style="fill:#fff"></path><path d="M281.89,320a1.46,1.46,0,1,1-1.46-1.46A1.46,1.46,0,0,1,281.89,320Z" style="fill:#fff"></path><rect x="287.72" y="312.31" width="4.51" height="13.56" style="fill:#455a64"></rect><rect x="294.23" y="312.31" width="4.51" height="13.56" style="fill:#455a64"></rect><rect x="300.75" y="312.31" width="4.51" height="13.56" style="fill:#455a64"></rect><rect x="307.26" y="312.31" width="4.51" height="13.56" style="fill:#455a64"></rect><rect x="313.77" y="312.31" width="4.51" height="13.56" style="fill:#455a64"></rect><rect x="320.29" y="312.31" width="4.51" height="13.56" style="fill:#455a64"></rect><rect x="326.8" y="312.31" width="4.51" height="13.56" style="fill:#455a64"></rect><rect x="333.31" y="312.31" width="4.51" height="13.56" style="fill:#455a64"></rect><rect x="339.83" y="312.31" width="4.51" height="13.56" style="fill:#455a64"></rect><rect x="346.34" y="312.31" width="4.51" height="13.56" style="fill:#455a64"></rect><rect x="269.6" y="343.61" width="81.95" height="23.07" style="fill:#263238"></rect><rect x="271.89" y="346.51" width="4.59" height="17.66" style="fill:#455a64"></rect><path d="M281.89,350.22a1.46,1.46,0,1,1-1.46-1.46A1.46,1.46,0,0,1,281.89,350.22Z" style="fill:#fff"></path><path d="M281.89,356.46a1.46,1.46,0,1,1-1.46-1.46A1.46,1.46,0,0,1,281.89,356.46Z" style="fill:#fff"></path><rect x="287.72" y="348.76" width="4.51" height="13.56" style="fill:#455a64"></rect><rect x="294.23" y="348.76" width="4.51" height="13.56" style="fill:#455a64"></rect><rect x="300.75" y="348.76" width="4.51" height="13.56" style="fill:#455a64"></rect><rect x="307.26" y="348.76" width="4.51" height="13.56" style="fill:#455a64"></rect><rect x="313.77" y="348.76" width="4.51" height="13.56" style="fill:#455a64"></rect><rect x="320.29" y="348.76" width="4.51" height="13.56" style="fill:#455a64"></rect><rect x="326.8" y="348.76" width="4.51" height="13.56" style="fill:#455a64"></rect><rect x="333.31" y="348.76" width="4.51" height="13.56" style="fill:#455a64"></rect><rect x="339.83" y="348.76" width="4.51" height="13.56" style="fill:#455a64"></rect><rect x="346.34" y="348.76" width="4.51" height="13.56" style="fill:#455a64"></rect><rect x="269.6" y="416.15" width="81.95" height="23.07" style="fill:#263238"></rect><rect x="271.89" y="419.05" width="4.59" height="17.66" style="fill:#455a64"></rect><path d="M281.89,422.76a1.46,1.46,0,1,1-1.46-1.46A1.46,1.46,0,0,1,281.89,422.76Z" style="fill:#fff"></path><path d="M281.89,429a1.46,1.46,0,1,1-1.46-1.46A1.46,1.46,0,0,1,281.89,429Z" style="fill:#fff"></path><rect x="287.72" y="421.3" width="4.51" height="13.56" style="fill:#455a64"></rect><rect x="294.23" y="421.3" width="4.51" height="13.56" style="fill:#455a64"></rect><rect x="300.75" y="421.3" width="4.51" height="13.56" style="fill:#455a64"></rect><rect x="307.26" y="421.3" width="4.51" height="13.56" style="fill:#455a64"></rect><rect x="313.77" y="421.3" width="4.51" height="13.56" style="fill:#455a64"></rect><rect x="320.29" y="421.3" width="4.51" height="13.56" style="fill:#455a64"></rect><rect x="326.8" y="421.3" width="4.51" height="13.56" style="fill:#455a64"></rect><rect x="333.31" y="421.3" width="4.51" height="13.56" style="fill:#455a64"></rect><rect x="339.83" y="421.3" width="4.51" height="13.56" style="fill:#455a64"></rect><rect x="346.34" y="421.3" width="4.51" height="13.56" style="fill:#455a64"></rect><rect x="269.6" y="379.91" width="81.95" height="23.07" style="fill:#263238"></rect><rect x="271.89" y="382.81" width="4.59" height="17.66" style="fill:#455a64"></rect><path d="M281.89,386.52a1.46,1.46,0,1,1-1.46-1.46A1.46,1.46,0,0,1,281.89,386.52Z" style="fill:#fff"></path><path d="M281.89,392.76a1.46,1.46,0,1,1-1.46-1.46A1.46,1.46,0,0,1,281.89,392.76Z" style="fill:#fff"></path><rect x="287.72" y="385.06" width="4.51" height="13.56" style="fill:#455a64"></rect><rect x="294.23" y="385.06" width="4.51" height="13.56" style="fill:#455a64"></rect><rect x="300.75" y="385.06" width="4.51" height="13.56" style="fill:#455a64"></rect><rect x="307.26" y="385.06" width="4.51" height="13.56" style="fill:#455a64"></rect><rect x="313.77" y="385.06" width="4.51" height="13.56" style="fill:#455a64"></rect><rect x="320.29" y="385.06" width="4.51" height="13.56" style="fill:#455a64"></rect><rect x="326.8" y="385.06" width="4.51" height="13.56" style="fill:#455a64"></rect><rect x="333.31" y="385.06" width="4.51" height="13.56" style="fill:#455a64"></rect><rect x="339.83" y="385.06" width="4.51" height="13.56" style="fill:#455a64"></rect><rect x="346.34" y="385.06" width="4.51" height="13.56" style="fill:#455a64"></rect><path d="M320.29,204.51a3.5,3.5,0,0,1-.09-.72c0-.46-.05-1.16-.08-2s0-2-.09-3.23a21.15,21.15,0,0,0-.56-4.21,15.28,15.28,0,0,0-2.19-4.62,10.22,10.22,0,0,0-4.5-3.61,21.78,21.78,0,0,0-6.37-1.3l-7.05-.61c-9.68-.84-18.45-1.37-24.81-1.49-3.18-.07-5.75,0-7.53,0l-2,0a3.2,3.2,0,0,1-.71,0,4,4,0,0,1,.71-.08l2-.12c1.78-.07,4.36-.15,7.55-.13,6.37,0,15.16.5,24.84,1.34l7.06.63a21.93,21.93,0,0,1,6.51,1.36,10.57,10.57,0,0,1,4.66,3.8,15.27,15.27,0,0,1,2.19,4.77,20,20,0,0,1,.5,4.3c0,1.26,0,2.35,0,3.24s0,1.53,0,2A4,4,0,0,1,320.29,204.51Z" style="fill:#263238"></path><path d="M295.43,204.51a2.74,2.74,0,0,1-.05-.68c0-.49,0-1.13,0-1.92s0-1.87-.1-3a9.22,9.22,0,0,0-1-3.8,7.2,7.2,0,0,0-3.7-2.85,10.13,10.13,0,0,0-5.4-.55,8.93,8.93,0,0,0-2.79.94,5.33,5.33,0,0,0-2.16,2,2.94,2.94,0,0,0,0,2.9,3.92,3.92,0,0,0,2.46,1.85,3.13,3.13,0,0,0,2.88-.84A4.13,4.13,0,0,0,286,193a6.09,6.09,0,0,0-2.17-1.91,8,8,0,0,0-2.71-.7c-.92-.14-1.82-.26-2.69-.36-1.75-.19-3.38-.3-4.87-.36-3-.12-5.41-.07-7.08-.07h-1.93a3.16,3.16,0,0,1-.67,0,3.23,3.23,0,0,1,.67-.07l1.92-.09c1.68-.07,4.1-.17,7.1-.1,1.5,0,3.15.13,4.9.31.88.08,1.79.2,2.72.33.47.07.93.13,1.42.22a5.72,5.72,0,0,1,1.44.5,6.56,6.56,0,0,1,2.36,2.06,4.67,4.67,0,0,1,1,3.12A4.78,4.78,0,0,1,285.9,199a3.64,3.64,0,0,1-3.35,1,4.37,4.37,0,0,1-2.8-2.1,3.44,3.44,0,0,1,0-3.39,5.79,5.79,0,0,1,2.37-2.24,9.6,9.6,0,0,1,2.95-1,10.59,10.59,0,0,1,5.64.62,7.6,7.6,0,0,1,3.86,3.07,9.44,9.44,0,0,1,1,4c.07,1.19,0,2.22,0,3.06s-.06,1.43-.08,1.92A5.09,5.09,0,0,1,295.43,204.51Z" style="fill:#263238"></path><path d="M327,204.51a3.81,3.81,0,0,1-.17-.77c-.09-.5-.23-1.24-.43-2.19a42.56,42.56,0,0,0-2.41-7.82,22.85,22.85,0,0,0-7.13-9.57,13.58,13.58,0,0,0-6.54-2.49,68.14,68.14,0,0,0-7.69-.41c-10.59-.2-20.19-.16-27.13-.43-3.47-.12-6.28-.28-8.22-.42l-2.23-.18a3.46,3.46,0,0,1-.77-.11H265l2.23.09c1.94.07,4.75.18,8.22.25,6.94.18,16.53.08,27.13.28a65.28,65.28,0,0,1,7.75.43,13.79,13.79,0,0,1,6.75,2.61,20.62,20.62,0,0,1,4.51,4.77,27.85,27.85,0,0,1,2.68,5,39.29,39.29,0,0,1,2.27,7.92c.17,1,.28,1.71.33,2.22A6.27,6.27,0,0,1,327,204.51Z" style="fill:#263238"></path><rect x="270.73" y="160.82" width="79.7" height="11.57" style="fill:#263238"></rect><rect x="288.26" y="166.61" width="43.39" height="5.78" style="fill:#455a64"></rect><path d="M383,400.77c0,.06-.88.15-2.41.59a20.9,20.9,0,0,0-6,2.95,16.45,16.45,0,0,0-3.38,3.14,11.32,11.32,0,0,0-1.39,2.15,13.62,13.62,0,0,0-.87,2.57c-.91,3.65-.64,7.84-.46,12.2s-.1,8.69-1.82,12.18a13.52,13.52,0,0,1-3.25,4.35,15.89,15.89,0,0,1-7.73,3.65,13.28,13.28,0,0,1-2.94.12,9.32,9.32,0,0,1-1.83-.29,3.81,3.81,0,0,1-.62-.18c0-.07.87.2,2.46.27a14.05,14.05,0,0,0,2.88-.21,15.62,15.62,0,0,0,3.63-1.16,15.94,15.94,0,0,0,3.86-2.52,13.15,13.15,0,0,0,3.1-4.24c1.65-3.38,1.92-7.62,1.74-11.95s-.45-8.59.51-12.34a14.31,14.31,0,0,1,.93-2.65,11.68,11.68,0,0,1,1.46-2.22,17.3,17.3,0,0,1,3.5-3.17,20,20,0,0,1,6.18-2.84,14.43,14.43,0,0,1,1.82-.35A3.87,3.87,0,0,1,383,400.77Z" style="fill:#263238"></path><rect x="346.21" y="440.62" width="6.54" height="7.96" style="fill:#263238"></rect><rect x="382.95" y="380.67" width="36.69" height="40.2" style="fill:#455a64"></rect><circle cx="401.29" cy="400.93" r="12.08" transform="translate(-76.8 706.23) rotate(-77.54)" style="fill:#263238"></circle><path d="M407.33,400.93a6,6,0,1,1-6-6A6,6,0,0,1,407.33,400.93Z" style="fill:#455a64"></path><circle cx="387.91" cy="386.91" r="1.12" style="fill:#263238"></circle><circle cx="414.02" cy="386.91" r="1.12" style="fill:#263238"></circle><path d="M415.39,416.6a1.13,1.13,0,1,1-1.13-1.12A1.13,1.13,0,0,1,415.39,416.6Z" style="fill:#263238"></path><circle cx="387.91" cy="417.06" r="1.12" style="fill:#263238"></circle><rect x="419.64" y="380.67" width="2.96" height="40.2" style="fill:#263238"></rect><path d="M375,112.58c3.62-8.46,1.42-17.28-4.53-24.3a25.48,25.48,0,0,0-24.93-8.08,27.87,27.87,0,0,0-55.28,3.59,20.87,20.87,0,0,0-15.93,28.31Z" style="fill:#C53F3F"></path><path d="M583.4,328.42a1.65,1.65,0,0,1,.36,0l1,0,4-.05a21.69,21.69,0,0,0,6.27-.74,19.24,19.24,0,0,0,13-12.06,20.47,20.47,0,0,0,.78-2.66,20.26,20.26,0,0,0,.34-2.83c.11-1.93,0-4,.05-6,0-8.26,0-17.35,0-26.88v-7.07a29.73,29.73,0,0,0-.13-3.42,14.73,14.73,0,0,0-.78-3.24,15.48,15.48,0,0,0-8.48-9c-3.76-1.73-7.82-1.14-11.47-1.3l-10.23-.1-14.8-.19-4-.07-1,0-.36,0,.36,0,1,0,4,0,14.81,0,10.22,0,5.7,0a15.54,15.54,0,0,1,6,1.25,16,16,0,0,1,8.77,9.32,15,15,0,0,1,.81,3.35,29,29,0,0,1,.14,3.48v7.07c0,9.53,0,18.62,0,26.88,0,2.08.05,4.07-.07,6.05a20.89,20.89,0,0,1-.37,2.9,21.41,21.41,0,0,1-.8,2.72,19.54,19.54,0,0,1-13.39,12.2,21.86,21.86,0,0,1-6.34.65l-4,0-1,0A1.41,1.41,0,0,1,583.4,328.42Z" style="fill:#263238"></path><polygon points="316.7 112.28 316.7 98.11 309.6 98.11 320.29 83.02 330.98 98.01 324.01 98.01 324.01 112.28 316.7 112.28" style="fill:#fff"></polygon></g></svg>