<svg width="24" height="24" viewBox="0 0 24 24" fill="none" xmlns="http://www.w3.org/2000/svg">
<path d="M12 8C10.9 8 9.95833 8.39167 9.175 9.175C8.39167 9.95833 8 10.9 8 12C8 12.75 8.18767 13.4417 8.563 14.075C8.93833 14.7083 9.459 15.2 10.125 15.55C10.3917 15.6833 10.5793 15.879 10.688 16.137C10.7967 16.395 10.7923 16.6577 10.675 16.925C10.5583 17.1583 10.3833 17.3333 10.15 17.45C9.91667 17.5667 9.68333 17.5667 9.45 17.45C8.4 16.95 7.56267 16.2083 6.938 15.225C6.31333 14.2417 6.00067 13.1667 6 12C6 10.3333 6.58333 8.91667 7.75 7.75C8.91667 6.58333 10.3333 6 12 6C13.1833 6 14.271 6.31267 15.263 6.938C16.255 7.56333 16.9923 8.41733 17.475 9.5C17.575 9.73333 17.571 9.96667 17.463 10.2C17.355 10.4333 17.184 10.6 16.95 10.7C16.6833 10.8167 16.4167 10.8167 16.15 10.7C15.8833 10.5833 15.6833 10.3917 15.55 10.125C15.2 9.45833 14.7083 8.93767 14.075 8.563C13.4417 8.18833 12.75 8.00067 12 8ZM12 4C9.76667 4 7.875 4.775 6.325 6.325C4.775 7.875 4 9.76667 4 12C4 14.1 4.69167 15.9 6.075 17.4C7.45833 18.9 9.19167 19.75 11.275 19.95C11.5583 19.9833 11.804 20.1083 12.012 20.325C12.22 20.5417 12.316 20.7917 12.3 21.075C12.284 21.3583 12.1797 21.5917 11.987 21.775C11.7943 21.9583 11.557 22.0417 11.275 22.025C9.975 21.9417 8.76233 21.6167 7.637 21.05C6.51167 20.4833 5.52833 19.7457 4.687 18.837C3.84567 17.9283 3.18733 16.8867 2.712 15.712C2.23667 14.5373 1.99933 13.3 2 12C2 10.6167 2.26267 9.31667 2.788 8.1C3.31333 6.88333 4.02567 5.825 4.925 4.925C5.82434 4.025 6.88267 3.31267 8.1 2.788C9.31734 2.26333 10.6173 2.00067 12 2C14.6167 2 16.896 2.89167 18.838 4.675C20.78 6.45833 21.8423 8.65833 22.025 11.275C22.0583 11.5417 21.9793 11.771 21.788 11.963C21.5967 12.155 21.359 12.259 21.075 12.275C20.791 12.291 20.537 12.1993 20.313 12C20.089 11.8007 19.9597 11.559 19.925 11.275C19.675 9.275 18.8043 7.56267 17.313 6.138C15.8217 4.71333 14.0507 4.00067 12 4ZM19.55 21.5L16.25 18.225L15.5 20.5C15.4167 20.7333 15.2583 20.846 15.025 20.838C14.7917 20.83 14.6333 20.709 14.55 20.475L12.275 12.9C12.2083 12.7167 12.25 12.55 12.4 12.4C12.55 12.25 12.7167 12.2083 12.9 12.275L20.475 14.55C20.7083 14.6333 20.8293 14.7917 20.838 15.025C20.8467 15.2583 20.734 15.4167 20.5 15.5L18.225 16.25L21.525 19.55C21.8083 19.8333 21.95 20.1583 21.95 20.525C21.95 20.8917 21.8083 21.2167 21.525 21.5C21.2417 21.7833 20.9127 21.925 20.538 21.925C20.1633 21.925 19.834 21.7833 19.55 21.5Z" fill="black"/>
</svg>
