<svg width="24" height="24" viewBox="0 0 24 24" fill="none" xmlns="http://www.w3.org/2000/svg">
<path d="M4 19C3.45 19 2.97933 18.8043 2.588 18.413C2.19667 18.0217 2.00067 17.5507 2 17V5C2 4.45 2.196 3.97933 2.588 3.588C2.98 3.19667 3.45067 3.00067 4 3H20C20.55 3 21.021 3.196 21.413 3.588C21.805 3.98 22.0007 4.45067 22 5V17C22 17.55 21.8043 18.021 21.413 18.413C21.0217 18.805 20.5507 19.0007 20 19H16V20C16 20.2833 15.904 20.521 15.712 20.713C15.52 20.905 15.2827 21.0007 15 21H9C8.71667 21 8.47933 20.904 8.288 20.712C8.09667 20.52 8.00067 20.2827 8 20V19H4ZM4 17H20V5H4V17ZM8 15H16V14.45C16 13.7 15.6333 13.1043 14.9 12.663C14.1667 12.2217 13.2 12.0007 12 12C10.8 11.9993 9.83333 12.2203 9.1 12.663C8.36667 13.1057 8 13.7013 8 14.45V15ZM12 11C12.55 11 13.021 10.8043 13.413 10.413C13.805 10.0217 14.0007 9.55067 14 9C13.9993 8.44933 13.8037 7.97867 13.413 7.588C13.0223 7.19733 12.5513 7.00133 12 7C11.4487 6.99867 10.978 7.19467 10.588 7.588C10.198 7.98133 10.002 8.452 10 9C9.998 9.548 10.194 10.019 10.588 10.413C10.982 10.807 11.4527 11.0027 12 11Z" fill="black"/>
</svg>
